<svg viewBox="0 0 400 165" xmlns="http://www.w3.org/2000/svg">
  <!-- 1970 Dodge Challenger - muscle car, long hood, fastback -->
  <path d="M8,155 L8,122 L38,90 L72,74 L145,65 L260,65 L298,73 L345,92 L388,112 L392,132 L392,155 Z" fill="white"/>
  <!-- windows -->
  <polygon points="50,89 88,73 145,66 145,91 50,91" fill="#333"/>
  <polygon points="150,66 255,66 255,91 150,91" fill="#333"/>
  <polygon points="260,66 294,74 294,91 260,91" fill="#333"/>
  <!-- wheel cutouts -->
  <circle cx="90" cy="135" r="22" fill="#111" stroke="white" stroke-width="4"/>
  <circle cx="308" cy="135" r="22" fill="#111" stroke="white" stroke-width="4"/>
  <!-- rims -->
  <circle cx="90" cy="135" r="9" fill="#444" stroke="white" stroke-width="2"/>
  <circle cx="308" cy="135" r="9" fill="#444" stroke="white" stroke-width="2"/>
</svg>
